<?xml version="1.0" standalone="no"?>
<!DOCTYPE svg PUBLIC "-//W3C//DTD SVG 20010904//EN"
 "http://www.w3.org/TR/2001/REC-SVG-20010904/DTD/svg10.dtd">
<svg version="1.0" xmlns="http://www.w3.org/2000/svg"
 width="816.000000pt" height="534.000000pt" viewBox="0 0 816.000000 534.000000"
 preserveAspectRatio="xMidYMid meet">

<g transform="translate(0.000000,534.000000) scale(0.100000,-0.100000)"
fill="#000000" stroke="none">
<path d="M0 2670 l0 -2670 4080 0 4080 0 0 2670 0 2670 -4080 0 -4080 0 0
-2670z m4392 1892 c422 -76 821 -303 1099 -625 54 -62 75 -98 47 -81 -7 4 -8
3 -4 -4 4 -6 14 -8 22 -5 14 5 14 3 2 -16 -13 -21 -13 -21 -48 21 -58 70 -79
93 -80 86 0 -3 16 -26 36 -50 20 -23 52 -68 72 -98 31 -49 37 -64 41 -105 1
-5 6 -3 11 5 5 8 10 10 10 4 0 -5 -7 -19 -16 -30 -8 -10 -13 -13 -9 -7 8 17
-10 50 -19 34 -4 -6 -2 -11 3 -11 16 0 13 -17 -4 -24 -9 -3 -20 4 -29 22 -34
65 -190 258 -257 318 -162 144 -318 251 -464 319 -214 100 -461 159 -710 170
-135 6 -165 4 -295 -19 -310 -54 -551 -156 -789 -335 -89 -66 -242 -207 -300
-276 -23 -27 -56 -65 -74 -84 -17 -19 -25 -31 -18 -26 8 4 3 -6 -10 -24 -24
-33 -34 -37 -44 -21 -4 6 1 7 12 3 10 -3 15 -3 11 1 -3 4 0 19 8 34 11 22 11
29 -1 42 -12 13 -12 19 -2 29 6 6 12 16 12 20 0 17 103 139 196 232 280 282
634 456 1046 514 139 20 396 13 545 -13z m1186 -749 c-2 -11 2 -17 10 -15 8 1
11 -2 7 -8 -3 -5 -1 -10 6 -10 7 0 10 -2 7 -5 -3 -3 -17 0 -32 6 -18 9 -23 16
-16 24 5 7 7 15 3 18 -3 4 -1 7 6 7 6 0 11 -8 9 -17z m-2991 -41 c10 -6 10
-12 -2 -28 -13 -16 -14 -16 -9 -1 4 11 2 16 -7 14 -8 -2 -11 -2 -6 0 4 3 5 9
1 14 -6 11 7 12 23 1z m1593 -101 c22 -16 25 -27 28 -89 3 -84 -7 -108 -54
-128 -40 -17 -100 -6 -127 24 -22 24 -27 153 -7 177 38 46 110 53 160 16z
m247 -65 c-1 -25 -5 -48 -9 -51 -4 -4 -4 -14 -1 -22 7 -19 -38 -67 -103 -109
l-51 -33 33 -138 c38 -153 38 -153 23 -206 -15 -56 -64 -104 -148 -147 -88
-44 -180 -133 -235 -223 -19 -32 -37 -53 -41 -47 -3 5 -3 14 0 20 3 5 1 18 -4
28 -6 11 -7 22 -4 26 4 4 8 13 9 22 4 23 81 120 132 164 24 22 78 56 118 77
113 56 129 95 94 233 -44 177 -36 160 -73 148 -17 -6 -35 -14 -40 -17 -4 -4 9
-68 28 -142 39 -150 43 -187 19 -196 -29 -11 -46 24 -89 195 -32 131 -40 175
-31 185 6 8 47 27 90 43 128 45 256 144 272 211 9 36 14 27 11 -21z m1143 33
c0 -6 5 -7 13 -2 18 11 38 13 31 2 -3 -5 -9 -7 -14 -4 -4 3 -10 0 -12 -6 -2
-5 -11 -7 -21 -4 -18 8 -23 25 -7 25 6 0 10 -5 10 -11z m35 -47 c-3 -3 -11 0
-18 7 -9 10 -8 11 6 5 10 -3 15 -9 12 -12z m-1592 -283 c-3 -59 -27 -102 -83
-153 -36 -33 -109 -76 -127 -76 -5 0 -10 13 -11 29 -2 24 4 33 31 50 47 29
121 110 146 160 30 58 49 54 44 -10z m-247 -369 c6 0 23 -11 38 -25 23 -21 26
-31 26 -92 0 -80 -14 -106 -65 -123 -40 -13 -92 -1 -118 28 -22 24 -26 154 -6
178 20 24 70 45 94 39 11 -3 25 -5 31 -5z m683 -264 c27 -20 55 -36 63 -36 9
0 14 -11 13 -30 0 -26 -4 -30 -26 -30 -32 0 -132 64 -180 116 -83 88 -102 130
-90 193 1 3 39 -36 86 -86 47 -50 107 -108 134 -127z m-199 -541 l0 -195 -40
0 -40 0 0 195 0 195 40 0 40 0 0 -195z m130 129 c0 -59 2 -65 18 -58 68 30
145 5 175 -59 22 -45 21 -82 -2 -134 -30 -66 -115 -95 -169 -57 -20 14 -22 14
-22 -1 0 -13 -9 -16 -42 -13 l-43 3 -3 193 -2 192 45 0 45 0 0 -66z m-540 16
l0 -40 -95 0 -95 0 0 -40 0 -40 80 0 80 0 0 -41 0 -41 -80 4 -80 3 0 -67 0
-68 -45 0 -45 0 0 185 0 185 140 0 140 0 0 -40z m-680 1 c0 -34 -16 -49 -33
-31 -9 10 -9 11 1 6 17 -10 15 9 -3 24 -13 11 -13 15 -3 21 25 16 38 9 38 -20z
m205 -77 c29 -14 73 -61 63 -68 -2 -2 -18 -8 -36 -14 -28 -10 -35 -9 -52 8
-28 28 -64 25 -89 -6 -26 -34 -27 -68 -1 -94 24 -24 57 -26 88 -4 23 16 92 13
92 -4 0 -18 -32 -51 -64 -66 -98 -46 -206 16 -206 119 0 111 105 177 205 129z
m575 -72 c0 -96 7 -112 52 -112 38 0 48 24 48 120 l0 81 43 -3 42 -3 0 -135 0
-135 -42 -3 c-34 -3 -43 0 -43 13 0 15 -2 15 -22 1 -32 -22 -90 -20 -121 4
-15 12 -31 38 -37 58 -11 41 -14 185 -3 195 3 4 24 7 45 7 l38 0 0 -88z m907
43 c25 -29 33 -48 33 -77 l0 -38 -95 0 c-97 0 -113 -8 -83 -38 15 -15 80 -16
94 -2 15 15 76 0 72 -18 -10 -52 -136 -80 -195 -43 -66 42 -87 111 -56 183 26
58 68 80 142 75 49 -4 59 -8 88 -42z m216 30 c-3 -9 -8 -14 -10 -11 -3 3 -2 9
2 15 9 16 15 13 8 -4z m-73 -10 c0 -8 7 -15 16 -15 9 0 13 5 9 13 -4 6 0 4 8
-5 8 -10 16 -17 18 -15 2 1 -2 -4 -10 -10 -12 -11 -12 -13 -1 -13 10 0 9 -4
-4 -13 -20 -15 -35 -73 -36 -139 l0 -48 -35 0 -35 0 0 130 0 130 35 0 c24 0
35 -5 35 -15z m605 -396 c-4 -12 -2 -19 5 -17 7 2 15 -4 17 -12 3 -11 2 -12
-4 -2 -7 10 -14 8 -28 -8 -10 -11 -15 -20 -10 -20 4 0 1 -8 -6 -17 -10 -11
-10 -14 -1 -9 18 11 14 -5 -5 -20 -17 -13 -17 -14 2 -8 19 5 19 5 3 -9 -10 -8
-18 -19 -18 -26 0 -47 -182 -260 -320 -375 -97 -81 -191 -145 -302 -206 -84
-45 -108 -48 -33 -4 25 14 43 29 40 32 -3 3 14 17 37 30 156 91 390 302 473
425 38 56 37 80 -2 31 -13 -18 -56 -60 -96 -95 l-72 -64 62 68 c35 37 97 116
139 175 42 59 82 111 90 115 8 5 11 13 8 19 -5 7 -2 8 6 3 10 -6 12 -4 7 9 -4
10 -3 15 4 11 5 -4 7 -15 4 -26z m-1445 -15 c20 -20 22 -24 7 -24 -9 0 -17 4
-17 9 0 5 -13 14 -30 21 -53 22 -110 -19 -110 -79 0 -10 11 -30 25 -45 29 -32
76 -35 105 -6 11 11 26 20 33 20 24 -1 -54 -60 -79 -60 -88 0 -134 110 -71
168 42 38 96 37 137 -4z m-207 19 c-13 -2 -33 -2 -45 0 -13 2 -3 4 22 4 25 0
35 -2 23 -4z m309 0 c-31 -4 -33 -6 -30 -41 3 -32 7 -38 33 -43 l30 -7 -32 -1
c-32 -1 -33 -3 -33 -41 0 -22 -4 -40 -10 -40 -6 0 -10 37 -10 90 l0 90 43 -2
c37 -1 38 -2 9 -5z m-314 -90 c-10 -2 -28 -2 -40 0 -13 2 -5 4 17 4 22 1 32
-1 23 -4z m1618 -155 c-14 -18 -36 -46 -48 -63 -81 -107 -270 -281 -413 -380
-90 -62 -103 -76 -40 -40 148 83 345 254 465 404 19 23 37 41 42 41 4 0 1 -8
-6 -17 -87 -108 -128 -153 -208 -227 -219 -203 -468 -344 -756 -427 -146 -43
-248 -59 -392 -64 -107 -3 -115 -2 -60 6 205 29 333 51 371 64 24 8 31 12 14
9 -160 -31 -249 -44 -304 -43 -65 2 -64 2 25 10 480 43 942 291 1258 677 37
45 70 82 73 82 3 0 -7 -15 -21 -32z m-2881 -88 c10 -11 16 -20 13 -20 -3 0
-13 9 -23 20 -10 11 -16 20 -13 20 3 0 13 -9 23 -20z m110 -120 c10 -11 16
-20 13 -20 -3 0 -13 9 -23 20 -10 11 -16 20 -13 20 3 0 13 -9 23 -20z m106
-97 c13 -16 12 -17 -3 -4 -17 13 -22 21 -14 21 2 0 10 -8 17 -17z m1057 -430
c-10 -2 -28 -2 -40 0 -13 2 -5 4 17 4 22 1 32 -1 23 -4z m169 -10 c-20 -2 -52
-2 -70 0 -17 2 0 4 38 4 39 0 53 -2 32 -4z"/>
<path d="M4448 4523 c6 -2 18 -2 25 0 6 3 1 5 -13 5 -14 0 -19 -2 -12 -5z"/>
<path d="M4575 4490 c49 -16 91 -27 93 -25 5 4 -155 55 -171 54 -7 0 28 -13
78 -29z"/>
<path d="M4720 4440 c8 -5 20 -10 25 -10 6 0 3 5 -5 10 -8 5 -19 10 -25 10 -5
0 -3 -5 5 -10z"/>
<path d="M5010 4297 c0 -2 26 -21 58 -42 79 -52 144 -106 229 -189 40 -38 75
-67 78 -64 8 8 -125 129 -222 202 -81 60 -143 101 -143 93z"/>
<path d="M2606 3811 c-17 -18 -17 -20 4 -31 16 -9 20 -9 15 -1 -4 7 -2 18 5
26 18 21 -5 27 -24 6z m24 5 c0 -2 -8 -10 -17 -17 -16 -13 -17 -12 -4 4 13 16
21 21 21 13z"/>
<path d="M5544 3720 c0 -13 4 -16 10 -10 7 7 7 13 0 20 -6 6 -10 3 -10 -10z"/>
<path d="M4400 2130 c-23 -23 -26 -68 -7 -93 20 -28 69 -32 91 -8 27 30 25 80
-3 103 -30 23 -56 23 -81 -2z"/>
<path d="M4697 2132 c-23 -25 -13 -32 50 -32 37 0 53 4 53 13 0 38 -74 51
-103 19z"/>
<path d="M5560 1770 c-13 -8 -13 -10 2 -10 9 0 20 5 23 10 8 13 -5 13 -25 0z"/>
<path d="M4568 873 c7 -3 16 -2 19 1 4 3 -2 6 -13 5 -11 0 -14 -3 -6 -6z"/>
</g>
</svg>
